/* XPM */
static char *c2ab565431fd4b8a964da5a82c508655cu2FX5G1JbCiLe8g[] = {
/* columns rows colors chars-per-pixel */
"64 64 22 1 ",
"  c gray11",
". c #202020",
"X c #282828",
"o c #2C2C2C",
"O c gray19",
"+ c gray22",
"@ c #000064",
"# c #000070",
"$ c #00007C",
"% c gray25",
"& c #484848",
"* c #4C4C4C",
"= c gray33",
"- c gray36",
"; c #646464",
": c gray44",
"> c #7C7C7C",
", c #000088",
"< c #000098",
"1 c #0000A4",
"2 c #0000B0",
"3 c gray55",
/* pixels */
"                                                                ",
"&&&&&&&&&&&&*&*&&&&&&&&*&&&&&&&&&&*&&&&&&&&&&&&&&*&*&&&&&&&&*&&&",
"&&&&*&&&&&&&&*&*&&&&&&&&*&&&&&&&&&&*&&&&&*&&&&&&&&*&*&&&&&&&&*&&",
"&&&*&*&*&&&*&&*&&&&&*&&&&*&&&&&*&&&&*&&&*&*&*&&&*&&*&&&&&*&&&&*&",
"&&&&&&*&*&*&&&&&&&&&**&&*&&&&&&**&&*&&&&&&&*&*&*&&&&&&&&&**&&*&&",
"++++++++++++++++++++++++++++++++++++++++++++++++++++++++++++++++",
"@@@####@@@@@@@@###@#@@#@@@@@@######@@@@@@@#####################@",
"<,,,<<11<<,<<,,,<<<1<,,,,,,,,,,,,,,<11<<,,,$$,,,,,,,<<<<111<<<<<",
",,,<<<11<,,,<<,,<<<<<,,,,,,,,,,,,,,,<<<<,,,,,,,,,,,,,<<1111<,,<,",
",,<<<<11<,,,,<,,,,,<<,,,,,,<<<,,,,$$,<<<<<,,,,,,,,,,<111111<,$,,",
",<<1<<11<<,,,,,,,,,<<,,,,,,,<,<,,,,,,<<11<,,,,,,,,<<11111<<<,$$,",
"<<<<11<<<,,,,,,,,,,,,,<,,,,,,<<<,,,,,,<<<<<,,,,<<<<111<111<<,$$$",
"<,<<11<<,,,,,,<<<<,,<,<<,,,,,<<<<,<,,,,,<<<,,,<<11<<111111<<<,,,",
",,,<<<<,,,,,,,,<<<,<,,<,,,,,,<<1<<<,,,,,,,<<<<<<1111111111<<<<<,",
",,,<<,,,,,,,,<<<<<<,,,,<<<<<<<1<1<<,,,,,,<<<<<<11211111111<<<<<,",
",,,,,,,,,,<<<<<<<<<<,,<<<<<<<<<11<,,,,,,,<<111111221<<11111<<<<,",
",,,,,<,<<<<<1<<<,<<<<<<1111<<<<<<<,,,,,,<<<111111111<,<1111<<,,,",
"<,,,,,,<<11111<<,,<<<<11111<<<<<<<,,,,,,<<<<111111<<<<<<1<<,,,,,",
",,,,,<<<<1111<<<<,,<11111111<<<<<<,,,$$,<<<<<111<<<,<<,,<<<<,,,<",
"<,,,,<<<111111<<<<<111111121<<<<<<,,,,,,,,<<<<11<,,,<,,,,,<<<,,<",
"<<<<1111112211111122111111211<<<<<<,,,,,,,,<,,<<<,,,,,,$,,<<<<,,",
"<<<11111111222221122111221211<<,<<<,,$$$$,,,,,,<<<,,<<<,,,,,<<,<",
"11111111111222221111111211111<<<,<<,,$$$$,,<<<<<<<<<,<<,,,,,<1<<",
"1111112222222222111122111111<<<<,,,,,$$$$,,<<111<<<,<<<,,,,,<<<1",
"1111122222212221111121111111<<<,,,,,,,$$$$,<<11111<<,<<,,,,,<<11",
"11111122222111111<1111111<1<<,,,,,,,,,,$$$,<<1111<<<,,,<,<<<<111",
"111111112221111<<11<11111<,,,,,,,,,,,,,,,,,<<1111<<,,,<<<<<<1111",
"1111<<<11111<<<<<<<<1111<,,,,,,,,,,,,,,,,,,<<111<<,<<<<<11111111",
"111<<<<1<111<<,<<<<<<1<<<,,,$,$,,,,,,<<,,,,,<<<<<<<<<1111211111<",
"<<1<<<<,,<<<<<,<<1111<<1<,,,,,,,,,<,,<<,<,,,,,<<1111112122211111",
"<<<<<<,,,,,,<<<<<1111<<<<<<,,,,,,,<,,<,<<<,,,,<<<111112222221111",
"<<,,<,,,,,,,<<1<<<11111<<<,,,,,,,,,<,,<<<<<,,,<<<111222222111111",
"<,$$,,,,,<,,<1111111211<<<<<<<,,,,,,<,<<1<<<,,<<112222222111111<",
"<,,$$,,,<<<,<<11111111111<<<1<,,,<<,<<<1111<<<<<1222211111<1<<<,",
",,,,$,<<<<<<<<<<11111111<<<<<<<,,<<<<111111111<<1112111<<<<<<<,,",
",,,,,,,<<<<<,,,<1111112111<,<<,,,,<<112212111<<<<1111<<<,<<,,,,,",
",,,,,,,,<<<<,,,,<<11111111<,,,,,,,<112222111<<<<,<<<<<<<,,,,,,,,",
",,<,,,$,,,<<<,,,<<111<1111<,,,,,,,<11121111<<<<,,,,<<<<,,,,,$,,,",
"<<,,,,$$,<<<<<<,<<1111<1111,$,,,,<<11111111<,,,,,,,,,<<,<,,,,,,,",
"<<,,,,,$$,<<<<<<<<<11<<<<11,,,,,<<<<111111<<,$,<,,,,,,,<<<<<,<,,",
";;;;;;;;;;;;;;;;;;;;;;;;;;;;;;;;;;;;;;;;;;;;;;;;;;;;;;;;;;;;;;;;",
"&&*&&**&&&&&&&&&*&*&*&&&&&&&*&&**&&&&&&*&&**&&&&&&&&&*&*&*&&&&&&",
"&*&&&&*&&&&&*&&*&&&*&*&*&&&*&&&&*&&&&&*&&&&*&&&&&*&&*&&&*&*&*&&&",
"&&*&&&&&&&&*&*&&&&&&&&*&&&&&*&&&&&&&&&&*&&&&&&&&*&*&&&&&&&&*&&&&",
"&&&*&&&&&&&&*&*&&&&&&&&&&&&&&*&&&&&&&&&&*&&&&&&&&*&*&&&&&&&&&&&&",
"&&&*&*&*&&&*&&*&&&&&*&&&&*&&&&&*&&&&*&&&*&*&*&&&*&&*&&&&&*&&&&*&",
"                                                                ",
"XXXXXXXXXXXXXXXXXXXXXXXXXXXXXXXXXXXXXXXXXXXXXXXXXXXXXXXXXXXXXXXX",
"oooooooooooooooooooooooooooooooooooooooooooooooooooooooooooooooo",
"o*==-:::::::::::::::::::::-==*Xoo*==-:::::::::::::::::::::-==*Xo",
"o%>::-=:>::=*=;::>>>;;*;---=%&Xoo%;:::;*&*;=-;-%=*:-:;;;;%&%+&Xo",
"o%3;;=;;>;:*&&;=:::-=;=-=--*+&Xoo%-3:>;=%-==--&&;*-=;:>:==&%%&Xo",
"o%>;:-;-:--=*&*;:;--;:-=&;=%+&Xoo%-:;::-%&=&-*&-:=--:>>-;=&&&&Xo",
"o%:;:>;:=;--=*-;:;-;;;-*&;=&%&Xoo%:;;:>-*=*=-=*=;-*-::>-;;*%=&Xo",
"o%::>>>;:=:&===;>=-;;;:==;&&&&Xoo%:;;:-==*&;=---:;*;-;;;-;=%&&Xo",
"o%;::>>>;=:&==*-:*;-;=;;-==&*&Xoo%:;;>--=&*;=;;=-;*:&=-;-:=&*&Xo",
"o%;;>>>>=*-%;==;:==;=*;:=--&=&Xoo%3::>;=*&==-;;*;==;*=;-;>;-=&Xo",
"o%;>:>::-&==-;*;-&=;=;;;;;=%*&Xoo%>>>:;=&+&%--;;:*=-==:;:3::*&Xo",
"o%-:::>:=*=----;=&*;---;;;=&=&Xoo%>>:>=--*&+;-*;;=&;=;;=:>::-&Xo",
"o%;>:;::*=;==--=*%*;==-:;;=&%&Xoo%>>::--:-=&**%;;:&-=-;;>:;:-&Xo",
"o%;:>;>---===-;=&+-;-;:;;;=*=&Xoo%:>:;:=:;=&*&&;;--=&-:;::;;=&Xo",
"o+++OoXXX............XXXXoO+++Xoo+++OoXXX............XXXXoO+++Xo",
"o                              oo                              o",
"oXXXXXXXXXXXXXXXXXXXXXXXXXXXXXXooXXXXXXXXXXXXXXXXXXXXXXXXXXXXXXo"
};
