/* XPM */
static char *_63a17f5e07c4b0aef693e47541d1c10IXVQGJs9jXfFx7u1[] = {
/* columns rows colors chars-per-pixel */
"64 64 47 1 ",
"  c black",
". c #181818",
"X c #302410",
"o c #202020",
"O c #212921",
"+ c #2E2B22",
"@ c #282828",
"# c #2C2C2C",
"$ c #313929",
"% c gray19",
"& c #343434",
"* c #313931",
"= c gray22",
"- c #483818",
"; c #394A39",
": c #4C4436",
"> c gray25",
", c #484848",
"< c #4C4C4C",
"1 c #524A42",
"2 c #5E5246",
"3 c #525A4A",
"4 c gray33",
"5 c gray36",
"6 c #685D4C",
"7 c #736352",
"8 c #736B52",
"9 c #736B5A",
"0 c #7B6B5A",
"q c #646464",
"w c gray44",
"e c #7C7C7C",
"r c #81735D",
"t c #847B63",
"y c #8C7B67",
"u c #94846B",
"i c #9A8C77",
"p c gray55",
"a c #989898",
"s c #A89A85",
"d c gray66",
"f c #B4B4B4",
"g c #C8BFB2",
"h c #C0C0C0",
"j c #D0D0D0",
"k c gainsboro",
"l c #ECECEC",
/* pixels */
"                                                                ",
"                                                                ",
"                                                                ",
"llklkllllkklklllllllkkkllllkkllllllkklkllllllllllllkllkkkllkkklk",
"kkkkllkklkkklkkkkkkkkllkklkkkkkklkkkkkkkkkllklkkkklkljkkkkkkkkkk",
"kkklllllkkklkkllklkkkklklllkkkkkklkkkjkjklklkklkllllkkkkkkkklkll",
"jkkkkkklkklkkkkkkklkkklkkkkkkklkkkkkjkkkkklllllkklkkkkkkkkkkkkkk",
"hhhhjfhkdjfjjjjhhjjffhjhdhffhjjjhjjjjhjjjkkkkjjjhhffffkjkjkkjkjh",
"dfdapddadppddddffaapepaepeaadadpddhhadfhhjhhdhfdadaaappdffjahdde",
"appdde9pqetteepaw99969wwq9eppppaaaapaadddfdaaadaapppe99eaadahdaw",
"eeepee6wwqwr99ey99ww6qwt9eppewepewwepeeweepppipietee9wepeweepeiw",
"5q2q552qww999wwtw99q26rtteppeweww9weew9weeepppweewe95qqwwqw9e9ww",
"======>124<1,,:11>==&&>>:>>111==>=>>,>>=>,1341>>,,<<121,,>>,>=>>",
"+@#@##&%&=&#&=&&&#@@@@@@#%@#%%@o+o+@@@Oo@%&&&%+##+%&%=%%&===%#%%",
"::+--+-::-:+X-:1:1:-----1:1--X.--.+++-X-:1::1:+--X+:-::---+++-:1",
"721122166222:227722222126921::=:12::1::1:2221261::12226211116260",
"02226226262212796276622660972::22622::11221122211122112122122669",
"r226226226:216616606672267r71:1127:1:262621261111:22661111112669",
"7706121676261622090779216997216222-:::1:21166211:121222262112669",
"67611627226:12269662662279r721677722::::11262221:1626222621:2226",
"7r722211:66227t0r96666267662116622:2:1:12622222222666666721:1126",
"6966212226622777766999769662226222:11222621222222269667672111222",
"6911266226666977666766799996222221:11212622662221:27666221112222",
"621:2611662267007612269tr00622621:-1261266972111::2662266621:111",
"262121::262267966622677009966262667116267662112222166269621::211",
"62221111262267976222669169666667766667277662226266266679261:1229",
"662112221221667661126706rr979667r22661276676626621:9969921:::212",
"1621:1111622767621226621607221272:12227967r72:12:12r966621::11:1",
"162112212726770721212222226222127227626662r91:26226666661:::2126",
"66211222661227r72222222621211:266622666797r2:2222266662211112166",
"902:226672112997212212622121:16626122266611:276262269922:1:11212",
"662:222661:12606222626611:26729622:2:221::22662162166662=1::1126",
"272:2221222267t62222222162667172762212212:1226216126666::22:1112",
"96116222666677966226721222112126212:261:222221:111666262221:11:1",
"621221226621697662266662:1::6277662:6211666661111222222211::11:1",
"62112:1:26166921::166221:::1927761167262269062222262222211::::11",
"1211612:2216671:2116622:1::172627167677697r9222112626211:11111:1",
"22222111271266276:166621:::2626rr626297697t7221112622111::211122",
"22221:1262126661=$22261111::260771212r76r9y9211::261221111:>1122",
"972211611222622:::22696621::262266220t080797212:2721222221::6666",
"r6271161226222626221697721127622622299r76766222122:2222211221626",
"0762112662226762222222622::1222127622261200722:11::2662212612622",
"67221::2221427222212122:21:11622272276267rt666261:12662226212672",
"6611*>12:>166622666627770211177676276227670666166212222272:12621",
"276211126296221172661:19711116226266226726r972:1111112622:111612",
"22622212626622621:12276r622:11260676612617t072:2:1::662111222169",
"667622266266722::2676rr7696122577776626616962221::2277622221<,97",
"2666622699677662:7897rt0r622662222662122267622211262626::1111261",
"2626>22666277621:967966672767662r7762122266626662679226222212222",
"22662,>66266662267990667070976627r22666222622666679622762222,626",
"2677212092667616762792276262255272666661267626262q62696222225q76",
"777222251;>66660222071221:21262272667762667766666666762212622662",
">,21212622407977169721162622262262777006612666222466766212262266",
"126562221250099729722666072269677726977611907679622116267q762166",
">24622222656666727226776776666q277267676270769t96222266767562226",
"12525676666779771672776676222256r6677976600790q56222666699222111",
"12255521262296211776659rr766q227776007666765qr9q6762166765262121",
"25qqq6,276277q21276665669q67552762q97955676690999222600995222642",
"7qqqq521226999q56076259990q92556q2rtt055q765wt9q625679r956555q65",
"9qqqq522626qq9925922259trr666667yrtt99q59r9t09q56575q90qq526qqqq",
"wtqqq0599q9qww665q6657ttt99eq977yytqqqqqwwyt99qq9qwqwttqqwqqweww",
"eiwett9weeeeeeewqpwewwtweepeweeyyy999yeiweeeeqwqywweieiweewweppe",
"eappiiweeppepeeppdpaeeiuppssadddddppapeeeaapp9eesueeeppepapapsae",
"hfdhhdddaafhdhfgjhjjfhhjhhffhfffffffddhdhfhfddahdfdhdfhddddhfddh"
};
