/* XPM */
static char *_5250902ab89429de246fbd17a71fa74EGER7kQTqxVRxlt2[] = {
/* columns rows colors chars-per-pixel */
"64 64 7 1 ",
"  c #484848",
". c gray36",
"X c #646464",
"o c gray44",
"O c #7C7C7C",
"+ c gray55",
"@ c #989898",
/* pixels */
"@@@@@@@@@+ @@@@@@@@@+ @@@@@@@@@+ @@@@@@@@+ @@@@@@@@@+ @@@@@@@@+ ",
"@OoOOooOO. @ooooOOOO. @oooOoOoO. @OoooooO. @OOOOOooo. @OoOOOOO. ",
"@oOOOOOOO. @OOoOOOOO. @ooXooXoo. @OoooOoo. @OOOoOOOo. @oOOOoOO. ",
"@XXOoooXo. @oOoOOoOO. @ooooOooo. @oOooOoo. @ooOOoOOO. @oooXOOO. ",
"@ooooooXo. @OOoOOXoX. @ooooooOo. @oOOooOo. @OooOooOO. @ooooOOO. ",
"@ooooOooO. @OoOOooXX. @OOoooooO. @oOOOOOo. @oOoOooOo. @OOOooOO. ",
"@oooooXXo. @OOooOOoo. @OooooooO. @OoOOOoo. @OOooooOO. @oOOooOO. ",
"@ooooooXo. @OoOoOOOO. @Oooooooo. @OooOooo. @OOoOoOOO. @oOOOoOo. ",
"@XoooOooo. @oooooOoo. @oooooooO. @oOOOXoo. @oOOOooOO. @ooOooOo. ",
"@oooOOooo. @oooooOOo. @oooooooo. @OoOOoOO. @oooOOOOO. @oOOOoOO. ",
"@ooOoOoOo. @OOOooOOO. @ooOOoOoO. @oooooOo. @oOoOoOoO. @OOoOOoo. ",
"@ooOOOooo. @OOOOoOOo. @OooOOOOO. @OooOoOo. @ooooOOoo. @oOOOooO. ",
"@ooOOOOoo. @OoooooOO. @oooOoOOO. @OooOOOO. @ooooOOOO. @OOOOOoo. ",
"@OOooOooO. @ooooOoOO. @ooOOOOoO. @oOoOOOO. @OoOooooo. @oOooOOo. ",
"+......... +......... +......... +........ +......... +........ ",
"                                                                ",
"@@@@@@@@@+ @@@@@@@@@+ @@@@@@@@@+ @@@@@@@@+ @@@@@@@@@+ @@@@@@@@+ ",
"@OoOOOoOO. @oOoooooo. @ooooOoOO. @oOoOooO. @oooooooo. @OOOOOoo. ",
"@OOOOOOOo. @ooOOOooo. @OoOOOOoO. @OoOoOOO. @Oooooooo. @ooOoooO. ",
"@OOOOOOoO. @OOoooooo. @oooOoOoO. @OooOOOo. @oXoooOoO. @OoOoOoo. ",
"@OOOOooOo. @OOoOoOoo. @oOoOooOO. @OoooOOo. @OXooOOOO. @OoOoOoo. ",
"@OOOOOOOO. @OOOOOOoo. @OOOoOOoo. @oooooOo. @OXoOOOoO. @ooooooo. ",
"@oOOoOOOo. @OOOOoOOO. @OOOOOooO. @ooOOOoO. @OooOoOoO. @OOOoooo. ",
"@OOOOooOO. @oOOoOOoO. @oooOOoOo. @OOoOoOO. @OOOooOOO. @OOoOOOO. ",
"@OOOOoOoo. @OOOOOXoO. @OOOoooOO. @oooOOOO. @oooOXoOO. @OOOOOOO. ",
"@OOOOOOoo. @oOOOOOoo. @OOOoOOOO. @oOoooOo. @oooOXooo. @oOOOoOo. ",
"@OOOOooOO. @OOOOOOOo. @OOOOOOOo. @OoooooO. @ooXooooo. @OOOoooo. ",
"@ooOoOooO. @oooOoooo. @OOoooooO. @OOoOOoO. @Oooooooo. @OOOOoOO. ",
"@oOOoOOoO. @ooOOoOoo. @oOOooooO. @OoOoOOO. @OOoooOoO. @OOooooO. ",
"@oOOOOoOO. @OOOOooOo. @ooOoooOO. @OOoOOOo. @oooOooOO. @oOOoooo. ",
"+......... +......... +......... +........ +......... +........ ",
"                                                                ",
"@@@@@@@@@+ @@@@@@@@@+ @@@@@@@@@+ @@@@@@@@+ @@@@@@@@@+ @@@@@@@@+ ",
"@oooooXoO. @OOOooooo. @oOOOoOoo. @Ooooooo. @Oooooooo. @OOOOOOo. ",
"@OOOooooo. @OoOooOOO. @OOOOoOoo. @oOooooo. @oOoOoOoo. @OOOOOOo. ",
"@oooooooo. @oOoooOOo. @OOOoOoOo. @OOooooo. @OOOOoooo. @OOOOOoo. ",
"@OoOoOooO. @OoOOoooo. @OOOoOOoO. @ooOoooO. @OOoOOooo. @OOOOoOO. ",
"@ooOOoOOO. @oOOOOOoo. @OOOoOooo. @Ooooooo. @ooOXoooo. @OOOoOXo. ",
"@oooooOoO. @oOoOOoOO. @oOoOOOOO. @oooooOo. @OooooooO. @OooooOO. ",
"@OooOOOoO. @ooOoOooo. @OoOOOOOO. @oXXOOoo. @OOOooooO. @oooOooO. ",
"@oOOOoOOO. @OooOOOoO. @oOOOOOoo. @oooOoOO. @OoOoOOoO. @oOoooOO. ",
"@OooooOoo. @OOOoOOoo. @OXOOOOOO. @oooOoOO. @OoooOoOO. @OooOOoO. ",
"@OoOooooo. @oooOOOoO. @OOOOooOO. @oooOoOo. @ooooOOOo. @oooXOoO. ",
"@OOOoOooo. @ooOOOoOo. @OOOOoooO. @OoOOoOO. @oOooOOoO. @OOOooXO. ",
"@oOOOoooO. @ooOOooOo. @OOOOoooo. @oooOoOo. @oooOOooO. @XoooOoO. ",
"@ooOoOOOO. @oOooooOo. @ooOOoOoo. @oooooOo. @OOOooOOo. @oOOOooo. ",
"+......... +......... +......... +........ +......... +........ ",
"                                                                ",
"@@@@@@@@@+ @@@@@@@@@+ @@@@@@@@@+ @@@@@@@@+ @@@@@@@@@+ @@@@@@@@+ ",
"@ooOoOOOO. @ooOOOOoO. @oooooOOO. @OOOOOOO. @oOOOooOO. @oOoOOOO. ",
"@OoOOoooo. @oOOOOOOo. @oooOoooO. @OOOOOoO. @oXoOOOOO. @oooOOoo. ",
"@OOOOOooO. @OoOOooOO. @OooOoOO+. @OOOOOoO. @OoOOOOoo. @ooOoooo. ",
"@ooooOooO. @ooOooOOO. @oooOOOoO. @oooOoOO. @OoooXOOO. @oOOOOOO. ",
"@oooooOOO. @OoOOOOOO. @oooOOXoO. @oooOoOo. @ooXOoXoo. @Ooooooo. ",
"@OooooooO. @oOoOoOOo. @ooOOOoOO. @oOOOoOo. @oXOOoOOo. @OOOoooO. ",
"@oooooOoo. @oooooooo. @oOoOooOO. @OOOooOO. @oOOooooO. @ooOooOO. ",
"@OooOoooo. @OOooOOOo. @oOooooOO. @OooOooo. @OoooOooo. @OOooooo. ",
"@oOooooOo. @oOOoOOoo. @OOooOOOO. @OooOooo. @oOoooooO. @OoooooO. ",
"@oooOOoXo. @OoOOOooO. @ooooooOO. @OooOOOo. @oOoOoooO. @oOooOoO. ",
"@oOoOOooo. @OOoooOOo. @OoooooOO. @OOoOooo. @OOoooOoo. @oOoooOO. ",
"@ooOooooO. @oOOOooOo. @oooooOOO. @ooOOooO. @XooooooO. @OOooooO. ",
"@OOOOOOOo. @OooooooO. @ooOOoOOO. @oOOOooo. @XooOOOoo. @oOooooo. ",
"+......... +......... +......... +........ +......... +........ ",
"                                                                "
};
